<?xml version="1.0" standalone="no"?>
<!DOCTYPE svg PUBLIC "-//W3C//DTD SVG 1.1//EN" "http://www.w3.org/Graphics/SVG/1.1/DTD/svg11.dtd" >
<svg xmlns="http://www.w3.org/2000/svg">
<metadata>Generated by IcoMoon</metadata>
<defs>
<font id="icomoon" horiz-adv-x="1024">
<font-face units-per-em="1024" ascent="960" descent="-64" />
<missing-glyph horiz-adv-x="1024" />
<glyph unicode="&#x20;" horiz-adv-x="512" d="" />
<glyph unicode="&#xe900;" glyph-name="care" horiz-adv-x="1031" d="M515.419 957.154c-281.198 0-509.154-227.956-509.154-509.154s227.956-509.154 509.154-509.154c281.198 0 509.154 227.956 509.154 509.154 0 0.004 0 0.009 0 0.014 0 281.19-227.95 509.14-509.14 509.14-0.005 0-0.010 0-0.015 0zM515.419 18.401c-237.261 0-429.599 192.338-429.599 429.599s192.338 429.599 429.599 429.599c237.261 0 429.599-192.338 429.599-429.599 0-0.003 0-0.007 0-0.011 0-237.255-192.333-429.588-429.588-429.588-0.004 0-0.007 0-0.011 0zM624.312 670.755c-43.662-0.233-82.657-20.013-108.714-51.027-26.539 30.98-65.594 50.74-109.271 51.027-80.56-0.869-145.492-66.338-145.492-146.972 0-0.51 0.003-1.018 0.008-1.527-0.001-185.633 254.576-297.011 254.576-297.011s254.578 111.377 254.578 297.088c0.004 0.415 0.007 0.906 0.007 1.397 0 80.732-65.067 146.267-145.62 147.024zM626.42 405.992h-68.992v-68.992h-84.017v68.992h-68.991v84.016h68.991v68.992h84.017v-68.992h68.992v-84.016z" />
<glyph unicode="&#xe901;" glyph-name="search" d="M621.668 306.332c-44.476-31.692-98.895-50.332-157.668-50.332-150.221 0-272 121.779-272 272s121.779 272 272 272c150.221 0 272-121.779 272-272 0-58.773-18.641-113.192-50.332-157.668l178.714-178.714c17.606-17.606 17.46-45.778-0.006-63.244l-0.75-0.75c-17.421-17.421-45.781-17.469-63.244-0.006l-178.714 178.714zM464 320c114.875 0 208 93.125 208 208s-93.125 208-208 208c-114.875 0-208-93.125-208-208s93.125-208 208-208v0z" />
<glyph unicode="&#xe902;" glyph-name="decontamination" horiz-adv-x="1031" d="M515.419 957.154c-281.198 0-509.154-227.956-509.154-509.154s227.956-509.154 509.154-509.154c281.198 0 509.154 227.956 509.154 509.154 0 0.004 0 0.009 0 0.014 0 281.19-227.95 509.14-509.14 509.14-0.005 0-0.010 0-0.015 0zM515.419 18.401c-237.261 0-429.599 192.338-429.599 429.599s192.338 429.599 429.599 429.599c237.261 0 429.599-192.338 429.599-429.599 0-0.003 0-0.007 0-0.011 0-237.255-192.333-429.588-429.588-429.588-0.004 0-0.007 0-0.011 0zM377.058 681.271l94.381-160.037c0.818-1.398 2.312-2.322 4.022-2.322 0.817 0 1.585 0.211 2.251 0.581 11.853 6.619 26.007 10.583 41.074 10.734 15.77 0 30.427-4.572 42.759-12.459-0.121 0.061 0.121-0.016 0.382-0.016 0.495 0 0.925 0.279 1.141 0.688l92.013 168.92c0.736 1.321 1.169 2.898 1.169 4.577 0 3.668-2.070 6.853-5.106 8.45-39.139 20.406-85.342 32.555-134.337 33.034-51.434-1.028-98.837-16.781-138.549-43.182-0.959-0.702-2.201-2.868-2.201-5.323 0-1.345 0.372-2.602 1.019-3.676zM798.929 439.941l-185.765-3.265c-2.524-0.021-4.566-2.053-4.605-4.571-0.218-15.119-4.241-29.249-11.15-41.539-7.29-12.667-18.024-23.17-30.924-30.199-0.831-0.427-1.108-0.856-1.108-1.35 0-0.262 0.078-0.505 0.212-0.708l101.639-163.293c1.711-2.726 4.701-4.512 8.108-4.512 1.94 0 3.744 0.579 5.25 1.573 39.056 26.033 70.972 59.784 94.164 99.275 20.437 37.094 32.009 79.615 32.009 124.84 0 6.038-0.206 12.028-0.612 17.963-0.247 2.896-3.319 5.787-7.067 5.787-0.052 0-0.105-0.001-0.157-0.002zM240.373 439.941l185.765-3.265c2.524-0.021 4.566-2.053 4.605-4.571 0.218-15.119 4.241-29.249 11.15-41.539 7.29-12.667 18.024-23.17 30.924-30.199 0.831-0.427 1.108-0.856 1.108-1.35 0-0.262-0.078-0.505-0.212-0.708l-101.639-163.293c-1.711-2.726-4.701-4.512-8.108-4.512-1.94 0-3.744 0.579-5.25 1.573-39.056 26.033-70.972 59.784-94.164 99.275-20.437 37.094-32.009 79.615-32.009 124.84 0 6.038 0.206 12.028 0.612 17.963 0.247 2.896 3.319 5.787 7.067 5.787 0.053 0 0.105-0.001 0.157-0.002zM569.017 438.065c0-29.195-23.667-52.862-52.862-52.862s-52.862 23.667-52.862 52.862c0 29.195 23.667 52.862 52.862 52.862s52.862-23.667 52.862-52.862z" />
<glyph unicode="&#xe903;" glyph-name="environment" horiz-adv-x="1031" d="M515.419 950.068c0 0 0 0 0 0-277.285 0-502.068-224.784-502.068-502.068s224.784-502.068 502.068-502.068c277.285 0 502.068 224.784 502.068 502.068 0 0.004 0 0.009 0 0.014 0 277.277-224.777 502.054-502.054 502.054-0.005 0-0.010 0-0.015 0zM515.419 24.38c-233.959 0-423.62 189.661-423.62 423.62s189.661 423.62 423.62 423.62c233.959 0 423.62-189.661 423.62-423.62 0-0.003 0-0.007 0-0.010 0-233.953-189.657-423.61-423.61-423.61-0.004 0-0.007 0-0.011 0zM452.661 573.517c-79.016-63.188-91.671-196.764-93.708-238.194-19.107-19.552-63.188-65.731-63.188-75.599 2.255-16.343 15.037-29.125 31.188-31.358 13.675-0.022 41.025 69.417 48.456 88.939 43.758-11.89 163.991-34.2 249.839 49.121 106.702 103.545 109.827 301.228 109.827 301.228s-188.276-18.815-282.413-94.138z" />
<glyph unicode="&#xe904;" glyph-name="hand" horiz-adv-x="1031" d="M428.92 320.64l8.54 101.926s1.077 33.072 29.017 33.753c27.252 0.664 26.338-36.731 26.338-36.731l-2.22-47.036 140.259 173.85c4.734 6.844 12.541 11.27 21.382 11.27 5.247 0 10.129-1.559 14.21-4.239 1.247-0.921 2.427-1.99 3.484-3.17 4.363-4.61 7.034-10.821 7.034-17.655 0-5.984-2.047-11.49-5.48-15.855l-77.94-102.212 110.438 132.679c5.325 6.429 13.31 10.494 22.244 10.494 6.636 0 12.747-2.242 17.619-6.011 0.152-0.105 0.342-0.257 0.523-0.419 5.745-4.597 9.397-11.615 9.397-19.487 0-6.067-2.17-11.628-5.775-15.948l-104.343-132.202 89.656 104.074c4.356 5.121 10.805 8.348 18.008 8.348 4.378 0 8.477-1.192 11.991-3.269 1.223-0.749 2.366-1.56 3.448-2.442 5.494-4.424 9.371-10.775 10.606-18.025 0.222-1.336 0.335-2.675 0.335-4.039 0-5.887-2.102-11.283-5.595-15.478l-89.316-109.969 64.312 70.695c3.522 3.969 8.636 6.457 14.331 6.457 0.92 0 1.825-0.065 2.711-0.191 5.388-0.945 10.214-3.288 14.153-6.641 5.755-4.731 9.617-11.668 10.292-19.516 0.070-0.743 0.106-1.483 0.106-2.231 0-5.561-1.982-10.659-5.277-14.626l-122.677-145.988-32.791-40.644c-1.311-1.834-2.667-3.649-4.101-5.426s-2.921-3.486-4.436-5.155l-0.131-0.163 0.050 0.076c-3.023-3.311-6.146-6.365-9.432-9.237l-0.25-0.252c-2.652-2.713-5.641-5.079-8.904-7.036-9.959-7.706-21.57-13.438-34.214-16.541-10.194-2.991-21.187-4.638-32.564-4.638-40.608 0-76.318 20.976-96.884 52.684-4.649 6.238-8.167 12.976-10.466 20.255-5.139 12.957-8.046 27.431-8.046 42.585 0 7.098 0.638 14.047 1.859 20.793l-0.12-0.724 0.053 0.265c0.159 0.892 0.351 1.779 0.532 2.668zM466.842 466.986c35.882 0.874 34.68-48.364 34.68-48.364l-0.693-14.666 71.652 88.572-147.538-0.816 37.848 28.016s29.551 22.934 11.808 43.629c-18.192 21.218-44.496 1.144-44.496 1.144l-84.371-57.822-36.325-19.267c-0.803-0.422-1.612-0.835-2.403-1.275l-0.239-0.127 0.021 0.001c-18.628-10.562-33.659-25.53-43.997-43.536-4.324-6.529-7.483-13.474-9.384-20.921-3.734-11.184-5.831-23.535-5.831-36.376 0-39.145 19.491-73.737 49.298-94.602 10.164-7.783 21.809-13.456 34.479-16.491 3.926-1.383 7.757-2.281 11.743-2.649l0.352-0.016c3.783-0.69 8.351-1.225 12.993-1.486l0.212-0.023 0.209 0.001c2.251-0.119 4.515-0.191 6.799-0.177s4.546 0.11 6.796 0.253l38.101 0.211 6.284 18.952 5.638 36.058 8.156 97.334s1.418 43.546 38.207 44.442zM602.21 616.88c0-23.967-19.429-43.396-43.396-43.396s-43.396 19.429-43.396 43.396c0 23.969 34.716 69.433 43.396 95.47 8.679-26.037 43.396-71.502 43.396-95.47zM636.927 676.549c-0.607-9.111-8.147-16.271-17.358-16.271s-16.751 7.16-17.355 16.219c-0.003 9.037 13.88 26.090 17.355 35.854 3.475-9.764 17.358-26.817 17.358-35.802zM515.419 950.068c0 0 0 0 0 0-277.285 0-502.068-224.784-502.068-502.068s224.784-502.068 502.068-502.068c277.285 0 502.068 224.784 502.068 502.068 0 0.004 0 0.009 0 0.014 0 277.277-224.777 502.054-502.054 502.054-0.005 0-0.010 0-0.015 0zM515.419 24.38c-233.959 0-423.62 189.661-423.62 423.62s189.661 423.62 423.62 423.62c233.959 0 423.62-189.661 423.62-423.62 0-0.003 0-0.007 0-0.010 0-233.953-189.657-423.61-423.61-423.61-0.004 0-0.007 0-0.011 0z" />
<glyph unicode="&#xe905;" glyph-name="pathogens" horiz-adv-x="1031" d="M515.419 960c-282.77 0-512-229.23-512-512s229.23-512 512-512c282.77 0 512 229.23 512 512 0 0.004 0 0.009 0 0.014 0 282.762-229.224 511.986-511.986 511.986-0.005 0-0.010 0-0.015 0zM515.419 16c0 0 0 0 0 0-238.587 0-432 193.413-432 432s193.413 432 432 432c238.587 0 432-193.413 432-432 0-0.003 0-0.007 0-0.011 0-238.581-193.408-431.989-431.989-431.989-0.004 0-0.007 0-0.011 0zM353.594 639.846c0-19.211-15.574-34.785-34.785-34.785s-34.785 15.574-34.785 34.785c0 19.211 15.574 34.785 34.785 34.785s34.785-15.574 34.785-34.785zM374.019 683.925c0-6.791-5.505-12.297-12.297-12.297s-12.297 5.505-12.297 12.297c0 6.791 5.505 12.297 12.297 12.297s12.297-5.505 12.297-12.297zM731.132 243.51c0-6.791-5.505-12.297-12.297-12.297s-12.297 5.505-12.297 12.297c0 6.791 5.505 12.297 12.297 12.297s12.297-5.505 12.297-12.297zM694.242 214.777c0-6.791-5.505-12.297-12.297-12.297s-12.297 5.505-12.297 12.297c0 6.791 5.505 12.297 12.297 12.297s12.297-5.505 12.297-12.297zM645.135 321.019l98.857-32.683-73.026 76.139c4.544 10.964 8.072 23.735 9.989 37.027l104.148 26.168-105.058 26.654c-1.954 10.776-4.633 20.248-8.104 29.328l87.605 78.521-116.669-30.154c-4.247 4.911-8.582 9.381-13.157 13.595l34.191 107.448-79.648-77.93c-9.244 4.149-20.085 7.669-31.355 10.019l-28.805 109.57-26.155-107.571c-10.794-1.423-20.47-3.659-29.776-6.713l-72.824 81.355 27.139-105.005c-8.613-6.391-16.203-13.212-23.109-20.675l-107.248 34.136 77.608-79.321c-4.736-10.449-8.588-22.631-10.958-35.335l-106.27-27.924 105.085-25.55c1.876-13.041 4.998-24.768 9.312-35.9l-78.929-69.182 104.063 25.793c6.866-8.489 14.261-16.021 22.315-22.794l-32.357-98.836 75.772 72.675c12.156-5.101 26.272-8.897 40.999-10.719l25.333-101.025 26.046 102.661c9.78 1.874 18.283 4.286 26.474 7.34l70.048-79.903-26.003 104.91c9.077 7.216 17.094 15.047 24.254 23.62zM455.314 321.571c-20.257 0-36.678 16.421-36.678 36.678s16.421 36.678 36.678 36.678c20.257 0 36.678-16.421 36.678-36.678s-16.422-36.678-36.678-36.678zM473.653 459.519c0 0 0 0 0 0 0 10.128 8.211 18.339 18.339 18.339s18.339-8.211 18.339-18.339c0-10.128-8.211-18.339-18.339-18.339 0 0 0 0 0 0-10.128 0-18.339 8.211-18.339 18.339 0 0 0 0 0 0zM506.355 316.102c0 0 0 0-0.001 0-5.474 0-9.912 4.438-9.912 9.912s4.438 9.912 9.912 9.912c5.474 0 9.912-4.438 9.912-9.912 0 0 0 0 0-0.001 0-5.474-4.438-9.911-9.911-9.911zM563.010 361.092c0 0 0 0-0.001 0-5.474 0-9.912 4.438-9.912 9.912s4.438 9.912 9.912 9.912c5.474 0 9.912-4.438 9.912-9.912 0 0 0 0 0-0.001 0-5.474-4.438-9.911-9.911-9.911zM575.804 428.425c-27.301 0-49.432 22.132-49.432 49.433s22.132 49.433 49.433 49.433c27.301 0 49.433-22.132 49.433-49.433 0 0 0 0 0 0 0-27.301-22.132-49.432-49.432-49.432 0 0-0.001 0-0.001 0z" />
<glyph unicode="&#xe906;" glyph-name="patient" horiz-adv-x="1031" d="M580.753 328.162c-30.25 5.118-71.68 34.166-71.68 46.775v31.858c0 11.878 16.232 34.109 23.145 54.584 3.398 1.068 6.35 2.635 8.942 4.643 5.334 8.487 9.059 18.606 10.388 29.466 2.811 10.473-9.596 10.884-9.596 10.884s9.261 53.122 1.049 86.679c-11.137 45.691-70.924 68.714-94.322 68.714-23.41 0-83.11-23.024-94.279-68.714-8.197-33.557 1.225-86.679 1.225-86.679-0.226 0.021-0.488 0.033-0.754 0.033-4.783 0-8.661-3.877-8.661-8.661 0-0.676 0.077-1.333 0.224-1.964 1.756-11.215 5.77-21.294 11.569-30.092 1.879-1.49 4.217-3.025 6.743-4.229 7.083-20.555 23.331-42.788 23.331-54.665v-31.858c0-12.608-41.444-41.657-71.694-46.775-38.846-6.556-58.064-33.147-48.964-99.462 4.564-33.116 92.832-47.362 180.271-46.134 87.439-1.229 177.034 13.018 181.583 46.134 9.128 66.314-9.674 92.906-48.52 99.462zM418.083 248.872h-24.269v-24.033h-29.555v24.033h-24.269v29.266h24.269v24.033h29.555v-24.033h24.269v-29.266zM731.375 440.122c-30.249 5.12-71.678 34.167-71.678 46.775v31.858c0 11.878 16.232 34.11 23.143 54.585 3.398 1.068 6.35 2.635 8.943 4.644 5.334 8.487 9.059 18.606 10.388 29.466 2.812 10.473-9.597 10.884-9.597 10.884s9.262 53.122 1.049 86.678c-11.138 45.691-70.925 68.714-94.323 68.714-23.41 0-85.543-22.224-96.711-67.914-2.622-9.226-4.13-19.821-4.13-30.769 0-3.229 0.131-6.428 0.388-9.591 24.202-10.337 55.868-34.038 63.28-62.514 3.131-11.441 4.929-24.578 4.929-38.135 0-11.175-1.222-22.064-3.54-32.542-0.236-2.305 0.997 6.586-2.366-17.039 5.534-1.711 9.485-6.781 9.485-12.775 0-0.308-0.010-0.614-0.031-0.917-2.475-19.162-8.395-36.539-17.139-52.118-3.158-1.752-7.192-3.946-11.468-5.665-6.011-10.95-10.788-23.518-14.090-36.672l-0.259-30.61c0-12.608 40.507-30.685 70.757-35.803 23.927-4.493 42.863-21.948 49.429-44.654 70.579 3.111 128.311 17.361 132.060 44.654 9.129 66.315-9.674 92.906-48.52 99.461zM515.419 958.41c-279.753-2.82-505.449-230.257-505.449-510.41 0-281.905 228.529-510.434 510.434-510.434s510.434 228.529 510.434 510.434c0 0 0 0 0 0-1.421 282.199-230.516 510.416-512.913 510.416-0.881 0-1.762-0.002-2.642-0.007zM515.419 17.342c-236.042 2.379-426.473 194.28-426.473 430.658 0 237.857 192.821 430.679 430.679 430.679s430.679-192.821 430.679-430.679c-1.2-238.106-194.498-430.664-432.771-430.664-0.743 0-1.485 0.002-2.228 0.006z" />
<glyph unicode="&#xe907;" glyph-name="surveillance" horiz-adv-x="1031" d="M514.413 611.249c-156.622 0-258.465-163.145-258.465-163.145s108.984-161.429 258.465-164.069c149.481-2.638 258.465 164.069 258.465 164.069s-101.843 163.145-258.465 163.145zM514.413 327.515c-66.335 0-120.111 53.776-120.111 120.111s53.776 120.111 120.111 120.111c66.335 0 120.111-53.776 120.111-120.111s-53.776-120.111-120.111-120.111zM515.419 556.395c-60.071 0-108.768-48.697-108.768-108.768s48.697-108.768 108.768-108.768c60.071 0 108.768 48.697 108.768 108.768 0 0 0 0 0 0s0 0 0 0.001c0 60.071-48.697 108.767-108.767 108.767 0 0-0.001 0-0.001 0zM516.38 391.53c-30.981 0-56.096 25.115-56.096 56.097s25.115 56.097 56.097 56.097c30.981 0 56.096-25.115 56.097-56.096 0 0 0-0.001 0-0.001 0-30.981-25.115-56.096-56.096-56.096 0 0-0.001 0-0.001 0zM515.419 950.068c0 0 0 0 0 0-277.285 0-502.068-224.784-502.068-502.068s224.784-502.068 502.068-502.068c277.285 0 502.068 224.784 502.068 502.068 0 0.004 0 0.009 0 0.014 0 277.277-224.777 502.054-502.054 502.054-0.005 0-0.010 0-0.015 0zM515.419 24.38c-233.959 0-423.62 189.661-423.62 423.62s189.661 423.62 423.62 423.62c233.959 0 423.62-189.661 423.62-423.62 0-0.003 0-0.007 0-0.010 0-233.953-189.657-423.61-423.61-423.61-0.004 0-0.007 0-0.011 0z" />
<glyph unicode="&#xe908;" glyph-name="technology" horiz-adv-x="1031" d="M515.419 957.154c-281.198 0-509.154-227.956-509.154-509.154s227.956-509.154 509.154-509.154c281.198 0 509.154 227.956 509.154 509.154 0 0.004 0 0.009 0 0.014 0 281.19-227.95 509.14-509.14 509.14-0.005 0-0.010 0-0.015 0zM515.419 18.401c-237.261 0-429.599 192.338-429.599 429.599s192.338 429.599 429.599 429.599c237.261 0 429.599-192.338 429.599-429.599 0-0.003 0-0.007 0-0.010 0-237.255-192.333-429.588-429.588-429.588-0.004 0-0.007 0-0.011 0zM287.968 303.872l-31.388-27.173 21.151-30.695 35.252 21.434c8.842-9.717 18.702-18.252 29.486-25.522l-12.883-39.264 33.674-15.988 19.484 35.634c12.016-4.045 25.92-6.756 40.333-7.558l8.064-40.699 37.17 2.818-0.772 41.534c13.944 3.145 26.222 7.629 37.705 13.453l26.352-31.337 30.498 21.433-21.378 34.442c10.193 9.309 19.095 19.76 26.584 31.218l38.868-12.47 15.81 33.758-35.667 19.258c3.832 11.936 6.34 25.731 6.973 40.013l40.999 7.53-4.336 37.024-40.813-0.262c-3.275 13.793-7.84 25.904-13.714 37.226l33.185 25.239-21.542 30.422-36.315-20.122 1.248-1.821c-9.614 10.611-20.459 19.837-32.381 27.539l14.646 38.941-33.814 15.69-21.509-35.511 1.755-0.847c-11.833 3.876-25.522 6.457-39.699 7.191l-7.022 41.227-37.081-3.814-0.317-41.244c-15.786-3.633-29.712-9.077-42.553-16.234l5.305 3.531-26.361 32.698-30.308-21.703 20.313-36.208 4.468 3.099c-11.643-10.059-21.681-21.52-29.983-34.218l0.324 0.875-39.187 15.115-15.377-33.957 35.662-21.154c-3.914-11.812-6.541-25.482-7.325-39.643l-40.879-7.68 2.452-37.196 42 0.367-0.062 0.767c3.168-14.307 7.77-26.926 13.783-38.704zM349.533 362.219c-0.678 4.008-1.066 8.624-1.066 13.331 0 46.337 37.563 83.9 83.9 83.9s83.9-37.563 83.9-83.9c0-41.629-30.319-76.177-70.080-82.767-4.496-0.745-9.113-1.133-13.82-1.133-41.629 0-76.178 30.319-82.767 70.080zM570.132 562.973l-35.064-29.478 21.732-31.388 39.732 24.030-2.007 2.8c8.204-7.884 17.804-14.391 28.381-19.101l0.432-0.212-5.389-45.49 37.327-8.010 12.521 44.713-2.948 0.583c11.935 0.253 23.255 2.571 33.721 6.608l28.046-35.71 31.784 21.149-23.005 39.672c7.031 7.61 12.925 16.411 17.325 26.037l45.083-4.606 7.942 37.342-44.268 12.307c-0.504 11.508-2.891 22.317-6.861 32.325l35.76 28.538-22.384 30.927-38.787-22.884c-7.949 7.227-17.181 13.226-27.284 17.594l4.239 45.046-37.626 6.465-11.793-43.69q-4.735-0.301-9.519-1.063c-7.729-1.262-14.623-3.213-21.172-5.843l-27.7 34.609-30.885-22.441 22.256-37.564c-7.368-8.132-13.453-17.602-17.826-27.971l-44.691 5.024-7.159-37.5 43.997-12.752 0.338 1.627c0.219-3.851 0.615-7.383 1.19-10.856 1.516-9.197 4.306-17.972 8.183-26.132zM671.066 549.324c-2.455-0.416-5.283-0.653-8.167-0.653-28.387 0-51.398 23.012-51.398 51.398s23.012 51.398 51.398 51.398c25.503 0 46.668-18.574 50.704-42.932 0.456-2.754 0.694-5.583 0.694-8.466 0-25.503-18.574-46.668-42.932-50.704z" />
<glyph unicode="&#xe909;" glyph-name="menu" d="M128 725.334h768q17.667 0 30.167-12.5t12.5-30.167-12.5-30.167-30.167-12.5h-768q-17.667 0-30.167 12.5t-12.5 30.167 12.5 30.167 30.167 12.5zM128 213.334h768q17.667 0 30.167-12.5t12.5-30.167-12.5-30.167-30.167-12.5h-768q-17.667 0-30.167 12.5t-12.5 30.167 12.5 30.167 30.167 12.5zM128 469.334h768q17.667 0 30.167-12.5t12.5-30.167-12.5-30.167-30.167-12.5h-768q-17.667 0-30.167 12.5t-12.5 30.167 12.5 30.167 30.167 12.5z" />
<glyph unicode="&#xe90a;" glyph-name="cross" d="M810.667 768q18.333 0 30.5-12.167t12.167-30.5q0-18-12.333-30.333l-268.667-268.333 268.667-268.333q12.333-12.333 12.333-30.333 0-18.333-12.167-30.5t-30.5-12.167q-18 0-30.333 12.333l-268.333 268.667-268.333-268.667q-12.333-12.333-30.333-12.333-18.333 0-30.5 12.167t-12.167 30.5q0 18 12.333 30.333l268.667 268.333-268.667 268.333q-12.333 12.333-12.333 30.333 0 18.333 12.167 30.5t30.5 12.167q18 0 30.333-12.333l268.333-268.667 268.333 268.667q12.333 12.333 30.333 12.333z" />
<glyph unicode="&#xf003;" glyph-name="envelope-o" d="M950.857 91.428v438.857q-18.286-20.571-39.429-37.714-153.143-117.714-243.429-193.143-29.143-24.571-47.429-38.286t-49.429-27.714-58.571-14h-1.143q-27.429 0-58.571 14t-49.429 27.714-47.429 38.286q-90.286 75.429-243.429 193.143-21.143 17.143-39.429 37.714v-438.857q0-7.429 5.429-12.857t12.857-5.429h841.143q7.429 0 12.857 5.429t5.429 12.857zM950.857 692v14t-0.286 7.429-1.714 7.143-3.143 5.143-5.143 4.286-8 1.429h-841.143q-7.429 0-12.857-5.429t-5.429-12.857q0-96 84-162.286 110.286-86.857 229.143-181.143 3.429-2.857 20-16.857t26.286-21.429 25.429-18 28.857-15.714 24.571-5.143h1.143q11.429 0 24.571 5.143t28.857 15.714 25.429 18 26.286 21.429 20 16.857q118.857 94.286 229.143 181.143 30.857 24.571 57.429 66t26.571 75.143zM1024 713.143v-621.714q0-37.714-26.857-64.571t-64.571-26.857h-841.143q-37.714 0-64.571 26.857t-26.857 64.571v621.714q0 37.714 26.857 64.571t64.571 26.857h841.143q37.714 0 64.571-26.857t26.857-64.571z" />
<glyph unicode="&#xf02f;" glyph-name="print" horiz-adv-x="951" d="M219.429 73.143h512v146.286h-512v-146.286zM219.429 438.857h512v219.429h-91.429q-22.857 0-38.857 16t-16 38.857v91.429h-365.714v-365.714zM877.714 402.286q0 14.857-10.857 25.714t-25.714 10.857-25.714-10.857-10.857-25.714 10.857-25.714 25.714-10.857 25.714 10.857 10.857 25.714zM950.857 402.286v-237.714q0-7.429-5.429-12.857t-12.857-5.429h-128v-91.429q0-22.857-16-38.857t-38.857-16h-548.571q-22.857 0-38.857 16t-16 38.857v91.429h-128q-7.429 0-12.857 5.429t-5.429 12.857v237.714q0 45.143 32.286 77.429t77.429 32.286h36.571v310.857q0 22.857 16 38.857t38.857 16h384q22.857 0 50.286-11.429t43.429-27.429l86.857-86.857q16-16 27.429-43.429t11.429-50.286v-146.286h36.571q45.143 0 77.429-32.286t32.286-77.429z" />
<glyph unicode="&#xf04b;" glyph-name="play" horiz-adv-x="804" d="M790.857 421.143l-758.857-421.714q-13.143-7.429-22.571-1.714t-9.429 20.571v841.143q0 14.857 9.429 20.571t22.571-1.714l758.857-421.714q13.143-7.429 13.143-17.714t-13.143-17.714z" />
<glyph unicode="&#xf099;" glyph-name="twitter" horiz-adv-x="951" d="M925.714 717.714q-38.286-56-92.571-95.429 0.571-8 0.571-24 0-74.286-21.714-148.286t-66-142-105.429-120.286-147.429-83.429-184.571-31.143q-154.857 0-283.429 82.857 20-2.286 44.571-2.286 128.571 0 229.143 78.857-60 1.143-107.429 36.857t-65.143 91.143q18.857-2.857 34.857-2.857 24.571 0 48.571 6.286-64 13.143-106 63.714t-42 117.429v2.286q38.857-21.714 83.429-23.429-37.714 25.143-60 65.714t-22.286 88q0 50.286 25.143 93.143 69.143-85.143 168.286-136.286t212.286-56.857q-4.571 21.714-4.571 42.286 0 76.571 54 130.571t130.571 54q80 0 134.857-58.286 62.286 12 117.143 44.571-21.143-65.714-81.143-101.714 53.143 5.714 106.286 28.571z" />
<glyph unicode="&#xf09a;" glyph-name="facebook, facebook-f" horiz-adv-x="602" d="M548 944v-150.857h-89.714q-49.143 0-66.286-20.571t-17.143-61.714v-108h167.429l-22.286-169.143h-145.143v-433.714h-174.857v433.714h-145.714v169.143h145.714v124.571q0 106.286 59.429 164.857t158.286 58.571q84 0 130.286-6.857z" />
<glyph unicode="&#xf09e;" glyph-name="feed, rss" horiz-adv-x="806" d="M219.429 182.857q0-45.714-32-77.714t-77.714-32-77.714 32-32 77.714 32 77.714 77.714 32 77.714-32 32-77.714zM512 112.571q1.143-16-9.714-27.429-10.286-12-26.857-12h-77.143q-14.286 0-24.571 9.429t-11.429 23.714q-12.571 130.857-105.429 223.714t-223.714 105.429q-14.286 1.143-23.714 11.429t-9.429 24.571v77.143q0 16.571 12 26.857 9.714 9.714 24.571 9.714h2.857q91.429-7.429 174.857-46t148-103.714q65.143-64.571 103.714-148t46-174.857zM804.571 111.428q1.143-15.429-10.286-26.857-10.286-11.429-26.286-11.429h-81.714q-14.857 0-25.429 10t-11.143 24.286q-6.857 122.857-57.714 233.429t-132.286 192-192 132.286-233.429 58.286q-14.286 0.571-24.286 11.143t-10 24.857v81.714q0 16 11.429 26.286 10.286 10.286 25.143 10.286h1.714q149.714-7.429 286.571-68.571t243.143-168q106.857-106.286 168-243.143t68.571-286.571z" />
<glyph unicode="&#xf0c9;" glyph-name="bars, navicon, reorder" horiz-adv-x="878" d="M877.714 182.857v-73.143q0-14.857-10.857-25.714t-25.714-10.857h-804.571q-14.857 0-25.714 10.857t-10.857 25.714v73.143q0 14.857 10.857 25.714t25.714 10.857h804.571q14.857 0 25.714-10.857t10.857-25.714zM877.714 475.428v-73.143q0-14.857-10.857-25.714t-25.714-10.857h-804.571q-14.857 0-25.714 10.857t-10.857 25.714v73.143q0 14.857 10.857 25.714t25.714 10.857h804.571q14.857 0 25.714-10.857t10.857-25.714zM877.714 768v-73.143q0-14.857-10.857-25.714t-25.714-10.857h-804.571q-14.857 0-25.714 10.857t-10.857 25.714v73.143q0 14.857 10.857 25.714t25.714 10.857h804.571q14.857 0 25.714-10.857t10.857-25.714z" />
<glyph unicode="&#xf0d7;" glyph-name="caret-down" horiz-adv-x="585" d="M585.143 548.571q0-14.857-10.857-25.714l-256-256q-10.857-10.857-25.714-10.857t-25.714 10.857l-256 256q-10.857 10.857-10.857 25.714t10.857 25.714 25.714 10.857h512q14.857 0 25.714-10.857t10.857-25.714z" />
<glyph unicode="&#xf0e1;" glyph-name="linkedin" horiz-adv-x="878" d="M199.429 593.714v-566.286h-188.571v566.286h188.571zM211.429 768.571q0.571-41.714-28.857-69.714t-77.429-28h-1.143q-46.857 0-75.429 28t-28.571 69.714q0 42.286 29.429 70t76.857 27.714 76-27.714 29.143-70zM877.714 352v-324.571h-188v302.857q0 60-23.143 94t-72.286 34q-36 0-60.286-19.714t-36.286-48.857q-6.286-17.143-6.286-46.286v-316h-188q1.143 228 1.143 369.714t-0.571 169.143l-0.571 27.429h188v-82.286h-1.143q11.429 18.286 23.429 32t32.286 29.714 49.714 24.857 65.429 8.857q97.714 0 157.143-64.857t59.429-190z" />
<glyph unicode="&#xf104;" glyph-name="angle-left" horiz-adv-x="384" d="M358.286 640q0-7.429-5.714-13.143l-224.571-224.571 224.571-224.571q5.714-5.714 5.714-13.143t-5.714-13.143l-28.571-28.571q-5.714-5.714-13.143-5.714t-13.143 5.714l-266.286 266.286q-5.714 5.714-5.714 13.143t5.714 13.143l266.286 266.286q5.714 5.714 13.143 5.714t13.143-5.714l28.571-28.571q5.714-5.714 5.714-13.143z" />
<glyph unicode="&#xf105;" glyph-name="angle-right" horiz-adv-x="347" d="M340 402.286q0-7.429-5.714-13.143l-266.286-266.286q-5.714-5.714-13.143-5.714t-13.143 5.714l-28.571 28.571q-5.714 5.714-5.714 13.143t5.714 13.143l224.571 224.571-224.571 224.571q-5.714 5.714-5.714 13.143t5.714 13.143l28.571 28.571q5.714 5.714 13.143 5.714t13.143-5.714l266.286-266.286q5.714-5.714 5.714-13.143z" />
<glyph unicode="&#xf106;" glyph-name="angle-up" horiz-adv-x="658" d="M614.286 274.286q0-7.429-5.714-13.143l-28.571-28.571q-5.714-5.714-13.143-5.714t-13.143 5.714l-224.571 224.571-224.571-224.571q-5.714-5.714-13.143-5.714t-13.143 5.714l-28.571 28.571q-5.714 5.714-5.714 13.143t5.714 13.143l266.286 266.286q5.714 5.714 13.143 5.714t13.143-5.714l266.286-266.286q5.714-5.714 5.714-13.143z" />
<glyph unicode="&#xf107;" glyph-name="angle-down" horiz-adv-x="658" d="M614.286 530.286q0-7.429-5.714-13.143l-266.286-266.286q-5.714-5.714-13.143-5.714t-13.143 5.714l-266.286 266.286q-5.714 5.714-5.714 13.143t5.714 13.143l28.571 28.571q5.714 5.714 13.143 5.714t13.143-5.714l224.571-224.571 224.571 224.571q5.714 5.714 13.143 5.714t13.143-5.714l28.571-28.571q5.714-5.714 5.714-13.143z" />
<glyph unicode="&#xf167;" glyph-name="youtube" horiz-adv-x="878" d="M554.857 240v-120.571q0-38.286-22.286-38.286-13.143 0-25.714 12.571v172q12.571 12.571 25.714 12.571 22.286 0 22.286-38.286zM748 239.428v-26.286h-51.429v26.286q0 38.857 25.714 38.857t25.714-38.857zM196 364h61.143v53.714h-178.286v-53.714h60v-325.143h57.143v325.143zM360.571 38.857h50.857v282.286h-50.857v-216q-17.143-24-32.571-24-10.286 0-12 12-0.571 1.714-0.571 20v208h-50.857v-223.429q0-28 4.571-41.714 6.857-21.143 33.143-21.143 27.429 0 58.286 34.857v-30.857zM605.714 123.428v112.571q0 41.714-5.143 56.571-9.714 32-40.571 32-28.571 0-53.143-30.857v124h-50.857v-378.857h50.857v27.429q25.714-31.429 53.143-31.429 30.857 0 40.571 31.429 5.143 15.429 5.143 57.143zM798.857 129.143v7.429h-52q0-29.143-1.143-34.857-4-20.571-22.857-20.571-26.286 0-26.286 39.429v49.714h102.286v58.857q0 45.143-15.429 66.286-22.286 29.143-60.571 29.143-38.857 0-61.143-29.143-16-21.143-16-66.286v-98.857q0-45.143 16.571-66.286 22.286-29.143 61.714-29.143 41.143 0 61.714 30.286 10.286 15.429 12 30.857 1.143 5.143 1.143 33.143zM451.429 650.857v120q0 39.429-24.571 39.429t-24.571-39.429v-120q0-40 24.571-40t24.571 40zM862.286 221.714q0-133.714-14.857-200-8-33.714-33.143-56.571t-58.286-26.286q-105.143-12-317.143-12t-317.143 12q-33.143 3.429-58.571 26.286t-32.857 56.571q-14.857 64-14.857 200 0 133.714 14.857 200 8 33.714 33.143 56.571t58.857 26.857q104.571 11.429 316.571 11.429t317.143-11.429q33.143-4 58.571-26.857t32.857-56.571q14.857-64 14.857-200zM292 950.857h58.286l-69.143-228v-154.857h-57.143v154.857q-8 42.286-34.857 121.143-21.143 58.857-37.143 106.857h60.571l40.571-150.286zM503.429 760.571v-100q0-46.286-16-67.429-21.143-29.143-60.571-29.143-38.286 0-60 29.143-16 21.714-16 67.429v100q0 45.714 16 66.857 21.714 29.143 60 29.143 39.429 0 60.571-29.143 16-21.143 16-66.857zM694.857 853.143v-285.143h-52v31.429q-30.286-35.429-58.857-35.429-26.286 0-33.714 21.143-4.571 13.714-4.571 42.857v225.143h52v-209.714q0-18.857 0.571-20 1.714-12.571 12-12.571 15.429 0 32.571 24.571v217.714h52z" />
</font>
</defs>
</svg>
